<svg xmlns="http://www.w3.org/2000/svg" viewBox="0 0 552.977 142.455">
  <g id="レイヤー_2" data-name="レイヤー 2">
    <g id="contents">
      <g>
        <path d="M0,0H19.98L99.027,92.479V0h27.8V142.455h-19.98L27.8,49.976v92.479H0Z"/>
        <path d="M158.306,142.432V.032h93.8v24.8h-66v33.4h56.2v24.8h-56.2v34.6h66v24.8Z"/>
        <path d="M410.041,142.432h-23.2l-26.2-86.4-26.2,86.4h-23.2l-38-142.4h29l22,89.8,26-89.8h20.8l26,89.8,22.2-89.8h29Z"/>
        <path d="M478.786,65.162q.4-.8,1.092-2.334a36.9,36.9,0,0,1,3.576-5.413,37.345,37.345,0,0,1,6.5-6.8A37.529,37.529,0,0,1,500.089,45.2a39.663,39.663,0,0,1,14.252-2.483A36.312,36.312,0,0,1,541.8,54.534q11.173,11.82,11.174,29.9v58h-6.059v-58q0-15.891-9.286-25.723a30.691,30.691,0,0,0-23.291-9.833q-15.494,0-25.524,10.677T478.786,87.508v54.924h-6.159V.008h6.159Z"/>
      </g>
    </g>
  </g>
</svg>
